<svg width="63" height="60" viewBox="0 0 63 60" fill="none" xmlns="http://www.w3.org/2000/svg">
    <path d="M39.671 57.9193C39.1029 59.7788 36.7227 60.3065 35.4219 58.8613L28.697 51.3897C27.9247 50.5316 26.6651 50.314 25.6496 50.8632L16.5378 55.791C14.7899 56.7363 12.691 55.363 12.8573 53.3828L13.6615 43.8042C13.7629 42.5961 12.9831 41.4894 11.8113 41.1786L2.22474 38.6353C0.264184 38.1152 -0.293464 35.5997 1.26359 34.2998L8.87719 27.9433C9.80777 27.1664 10.0469 25.8338 9.44441 24.7819L4.66745 16.4405C3.67991 14.7161 5.00174 12.5845 6.98538 12.7025L17.3261 13.3179C18.4786 13.3864 19.5281 12.6569 19.8655 11.5528L22.8027 1.93918C23.3709 0.0796772 25.751 -0.44799 27.0518 0.997193L33.7767 8.46876C34.5491 9.32689 35.8086 9.54451 36.8241 8.99529L45.936 4.06749C47.6839 3.12219 49.7827 4.49548 49.6164 6.47567L48.8122 16.0543C48.7108 17.2623 49.4906 18.369 50.6624 18.6799L60.249 21.2232C62.2095 21.7433 62.7672 24.2587 61.2101 25.5587L53.5965 31.9151C52.6659 32.6921 52.4269 34.0247 53.0293 35.0766L57.8063 43.418C58.7938 45.1424 57.472 47.274 55.4883 47.156L45.1476 46.5406C43.9951 46.472 42.9456 47.2016 42.6082 48.3057L39.671 57.9193Z" fill="#F78454"/>
    <animateTransform attributeName="transform"
    attributeType="XML"
    type="rotate"
    from="0 0 0"
    to="360 0 0"
    dur="15s"
    repeatCount="indefinite"/>
</svg>