<svg class="menu_logo" width="24" height="24" viewBox="0 0 24 24" fill="white" xmlns="http://www.w3.org/2000/svg">
    <path d="M10.4693 0.634174C11.4494 0.228198 12.5506 0.228197 13.5307 0.634173L18.9545 2.88079C19.9347 3.28677 20.7134 4.06546 21.1193 5.04557L23.3659 10.4694C23.7719 11.4495 23.7719 12.5507 23.3659 13.5309L21.1193 18.9547C20.7134 19.9348 19.9347 20.7135 18.9545 21.1195L13.5307 23.3661C12.5506 23.772 11.4494 23.772 10.4693 23.3661L5.04545 21.1195C4.06534 20.7135 3.28664 19.9348 2.88067 18.9547L0.634052 13.5309C0.228076 12.5507 0.228075 11.4495 0.634051 10.4694L2.88067 5.04558C3.28664 4.06546 4.06534 3.28677 5.04545 2.88079L10.4693 0.634174Z" />
</svg>