<svg width="300" height="160" viewBox="0 0 300 160" fill="none" xmlns="http://www.w3.org/2000/svg">
<path d="M36.2132 8.78679C41.8393 3.1607 49.4699 0 57.4264 0H242.574C250.53 0 258.161 3.1607 263.787 8.7868L291.213 36.2132C296.839 41.8393 300 49.4699 300 57.4264V102.574C300 110.53 296.839 118.161 291.213 123.787L263.787 151.213C258.161 156.839 250.53 160 242.574 160H57.4264C49.4699 160 41.8393 156.839 36.2132 151.213L8.78679 123.787C3.1607 118.161 0 110.53 0 102.574V57.4264C0 49.4699 3.1607 41.8393 8.7868 36.2132L36.2132 8.78679Z" fill="#FAF8F0"/>
</svg>
