<svg width="180" height="180" viewBox="0 0 180 180" fill="none" xmlns="http://www.w3.org/2000/svg">
<path d="M41.2132 8.7868C46.8393 3.16071 54.4699 0 62.4264 0H117.574C125.53 0 133.161 3.1607 138.787 8.7868L171.213 41.2132C176.839 46.8393 180 54.4699 180 62.4264V117.574C180 125.53 176.839 133.161 171.213 138.787L138.787 171.213C133.161 176.839 125.53 180 117.574 180H62.4264C54.4699 180 46.8393 176.839 41.2132 171.213L8.7868 138.787C3.16071 133.161 0 125.53 0 117.574V62.4264C0 54.4699 3.1607 46.8393 8.7868 41.2132L41.2132 8.7868Z" fill="#20AB96"/>
</svg>
