<svg width="1278" height="334" viewBox="0 0 1278 334" fill="none" xmlns="http://www.w3.org/2000/svg">
<path d="M0.561523 77.5009H42.5105V288.644H158.919V325H0.561523V77.5009Z" fill="#1C1C1C"/>
<path d="M278.441 333.739C257.932 333.739 239.638 329.428 223.558 320.805C207.71 311.949 195.359 299.598 186.503 283.75C177.647 267.903 173.219 249.958 173.219 229.916V77.5009H215.517V229.566C215.517 241.452 218.081 252.638 223.208 263.125C228.568 273.379 236.026 281.653 245.581 287.945C255.136 294.237 266.089 297.384 278.441 297.384C290.793 297.384 301.629 294.47 310.951 288.644C320.506 282.818 327.847 274.778 332.975 264.524C338.335 254.036 341.015 242.267 341.015 229.216V77.5009H383.313V229.916C383.313 249.958 378.885 267.903 370.029 283.75C361.174 299.598 348.705 311.949 332.625 320.805C316.778 329.428 298.716 333.739 278.441 333.739Z" fill="#1C1C1C"/>
<path d="M483.718 114.206H404.364V77.5009H604.671V114.206H525.667V325H483.718V114.206Z" fill="#1C1C1C"/>
<path d="M629.387 77.5009H800.329V113.158H669.937V181.325H786.346V214.534H669.937V289.343H803.825V325H629.387V77.5009ZM687.766 8.98424L698.603 0.244873L732.162 43.9417L721.325 52.6811L687.766 8.98424Z" fill="#1C1C1C"/>
<path d="M951.138 333.739C924.337 333.739 900.915 328.379 880.873 317.659C860.831 306.706 845.45 291.324 834.729 271.515C824.009 251.473 818.649 228.051 818.649 201.25C818.649 174.45 823.659 151.145 833.681 131.335C843.935 111.293 858.5 95.9119 877.377 85.1916C896.254 74.2382 918.394 68.7616 943.797 68.7616C962.441 68.7616 979.453 72.3738 994.835 79.5984C1010.22 86.5899 1023.03 96.7276 1033.29 110.011C1043.54 123.062 1050.53 138.444 1054.26 156.155L1014.76 165.594C1012.66 153.242 1008.35 142.522 1001.83 133.433C995.301 124.344 987.027 117.469 977.006 112.808C967.218 107.914 956.148 105.467 943.797 105.467C927.017 105.467 912.335 109.312 899.75 117.003C887.165 124.694 877.494 135.763 870.735 150.213C863.977 164.662 860.598 181.674 860.598 201.25C860.598 220.827 864.327 237.839 871.784 252.288C879.242 266.738 889.729 277.924 903.246 285.848C916.996 293.538 932.96 297.384 951.138 297.384C965.82 297.384 979.104 294.354 990.989 288.295C1003.11 282.002 1013.01 273.379 1020.7 262.426C1028.63 251.24 1033.64 238.189 1035.73 223.274L1075.59 231.663C1072.56 252.172 1065.45 270.117 1054.26 285.498C1043.08 300.879 1028.63 312.765 1010.91 321.155C993.203 329.544 973.278 333.739 951.138 333.739Z" fill="#1C1C1C"/>
<path d="M1102.88 77.5009H1273.83V113.158H1143.43V181.325H1259.84V214.534H1143.43V289.343H1277.32V325H1102.88V77.5009Z" fill="#1C1C1C"/>
</svg>
