<svg width="282" height="282" viewBox="0 0 282 282" fill="none" xmlns="http://www.w3.org/2000/svg">
<path d="M64.6677 13.7258C73.4562 4.9373 85.3759 0 97.8046 0H183.949C196.378 0 208.298 4.9373 217.086 13.7258L267.739 64.3787C276.528 73.1671 281.465 85.0868 281.465 97.5156V183.66C281.465 196.089 276.528 208.009 267.739 216.797L217.086 267.45C208.298 276.239 196.378 281.176 183.949 281.176H97.8046C85.3759 281.176 73.4562 276.239 64.6677 267.45L14.0148 216.797C5.22637 208.009 0.289062 196.089 0.289062 183.66V97.5156C0.289062 85.0868 5.22636 73.1671 14.0148 64.3787L64.6677 13.7258Z" fill="#F84949"/>
</svg>
