<svg width="14" height="13" viewBox="0 0 14 13" fill="none" xmlns="http://www.w3.org/2000/svg">
    <path d="M8.74577 0.914703C9.04889 0.445663 9.77613 0.751049 9.6535 1.29588L8.88669 4.70275C8.81888 5.00406 9.03772 5.29418 9.34607 5.31174L12.9034 5.51429C13.4674 5.5464 13.5537 6.34269 13.0098 6.49497L9.70309 7.42064C9.39287 7.50749 9.24453 7.86074 9.39974 8.14303L11.0541 11.152C11.3263 11.647 10.6973 12.1429 10.2795 11.7627L7.64408 9.36477C7.41565 9.15692 7.05528 9.20381 6.88765 9.4632L4.9922 12.3961C4.68907 12.8652 3.96184 12.5598 4.08446 12.0149L4.85127 8.60806C4.91909 8.30676 4.70024 8.01664 4.3919 7.99908L0.834555 7.79653C0.270584 7.76442 0.184217 6.96813 0.728189 6.81585L4.03487 5.89017C4.3451 5.80333 4.49344 5.45008 4.33822 5.16778L2.68382 2.15881C2.41165 1.66381 3.04064 1.16792 3.45846 1.54808L6.09388 3.94605C6.32231 4.1539 6.68268 4.10701 6.85032 3.84762L8.74577 0.914703Z" fill="#F78454"/>
    <animateTransform attributeName="transform"
    attributeType="XML"
    type="rotate"
    from="0 0 0"
    to="360 0 0"
    dur="10s"
    repeatCount="indefinite"/>
</svg>