<svg width="38" height="37" viewBox="0 0 38 37" fill="none" xmlns="http://www.w3.org/2000/svg">
    <path d="M24.5541 1.17803C25.4768 0.464107 26.8255 1.03046 26.9618 2.18908L27.7228 8.65727C27.8038 9.34524 28.3453 9.8883 29.033 9.97121L35.6966 10.7745C36.8803 10.9172 37.4324 12.3171 36.6648 13.2294L32.6436 18.0084C32.1753 18.565 32.1738 19.3773 32.64 19.9356L36.7705 24.882C37.5505 25.8162 36.952 27.2415 35.7389 27.3387L29.3152 27.8531C28.5902 27.9112 28.0113 28.4811 27.9418 29.2051L27.3454 35.4222C27.2316 36.6091 25.8454 37.1951 24.9147 36.4499L19.6755 32.2549C19.1348 31.8219 18.3679 31.8155 17.82 32.2394L12.6691 36.225C11.7465 36.939 10.3978 36.3726 10.2615 35.214L9.50043 28.7458C9.41949 28.0578 8.87797 27.5148 8.19023 27.4319L1.5267 26.6286C0.342982 26.4859 -0.209163 25.0859 0.558473 24.1736L4.57962 19.3947C5.04792 18.8381 5.04945 18.0258 4.58324 17.4675L0.452784 12.521C-0.327274 11.5869 0.27126 10.1616 1.4844 10.0644L7.90805 9.54993C8.63309 9.49186 9.21198 8.92199 9.28144 8.19796L9.87785 1.98085C9.99171 0.794002 11.3778 0.207964 12.3085 0.953179L17.5478 5.14821C18.0885 5.58118 18.8554 5.58756 19.4033 5.16364L24.5541 1.17803Z" fill="#F78454"/>
    <animateTransform attributeName="transform"
    attributeType="XML"
    type="rotate"
    from="0 0 0"
    to="360 0 0"
    dur="5s"
    repeatCount="indefinite"/>
</svg>