<svg width="20" height="19" viewBox="0 0 20 19" fill="none" xmlns="http://www.w3.org/2000/svg">
    <path d="M11.649 0.2971C12.5129 -0.210794 13.6223 0.255096 13.8646 1.22753L14.8688 5.25756C14.9463 5.56833 15.1211 5.84615 15.3678 6.05037L18.5677 8.69915C19.3768 9.36891 19.2648 10.6414 18.3511 11.1595L14.9029 13.1147C14.6107 13.2803 14.3826 13.5392 14.2551 13.8499L12.7504 17.5157C12.3629 18.46 11.1657 18.7497 10.3892 18.0872L7.1401 15.3151C6.90331 15.113 6.60954 14.9897 6.29951 14.9621L2.04533 14.5834C1.0286 14.4929 0.397263 13.4353 0.800064 12.4974L2.36372 8.85642C2.49625 8.54782 2.52139 8.20367 2.43509 7.87909L1.41659 4.04819C1.14672 3.03311 1.97678 2.06213 3.02149 2.17084L7.15314 2.60079C7.47169 2.63394 7.79249 2.56426 8.06858 2.40194L11.649 0.2971Z" fill="#F78454"/>
    <animateTransform attributeName="transform"
    attributeType="XML"
    type="rotate"
    from="0 0 0"
    to="360 0 0"
    dur="10s"
    repeatCount="indefinite"/>
</svg>