<svg width="178" height="178" viewBox="0 0 178 178" fill="none" xmlns="http://www.w3.org/2000/svg">
<path d="M81.3463 2.17025C86.2469 0.140374 91.7531 0.140374 96.6537 2.17025L144.986 22.1901C149.887 24.22 153.78 28.1135 155.81 33.0141L175.83 81.3463C177.86 86.2469 177.86 91.7531 175.83 96.6537L155.81 144.986C153.78 149.887 149.886 153.78 144.986 155.81L96.6537 175.83C91.7531 177.86 86.2469 177.86 81.3463 175.83L33.0141 155.81C28.1135 153.78 24.22 149.886 22.1901 144.986L2.17025 96.6537C0.140374 91.7531 0.140374 86.2469 2.17025 81.3463L22.1901 33.0141C24.22 28.1135 28.1135 24.22 33.0141 22.1901L81.3463 2.17025Z" fill="#FAE15A"/>
</svg>
