<svg width="226" height="120" viewBox="0 0 226 120" fill="none" xmlns="http://www.w3.org/2000/svg">
<path d="M27.6599 6.59009C31.8795 2.37052 37.6024 0 43.5698 0H182.43C188.398 0 194.121 2.37053 198.34 6.5901L218.91 27.1599C223.129 31.3795 225.5 37.1024 225.5 43.0698V76.9302C225.5 82.8976 223.129 88.6205 218.91 92.8401L198.34 113.41C194.121 117.629 188.398 120 182.43 120H43.5698C37.6024 120 31.8795 117.629 27.6599 113.41L7.09009 92.8401C2.87052 88.6205 0.5 82.8976 0.5 76.9302V43.0698C0.5 37.1024 2.87053 31.3795 7.0901 27.1599L27.6599 6.59009Z" fill="#F84949"/>
</svg>
