<svg width="170" height="170" viewBox="0 0 170 170" fill="none" xmlns="http://www.w3.org/2000/svg">
<path d="M124.844 116.875H122.188V106.25H124.844C131.184 106.504 137.366 104.228 142.028 99.9244C146.691 95.6205 149.453 89.6406 149.706 83.3002C149.96 76.9599 147.685 70.7785 143.381 66.1159C139.077 61.4533 133.097 58.6913 126.756 58.4377H122.188L121.656 54.0815C120.478 45.1376 116.088 36.9271 109.305 30.9794C102.522 25.0318 93.8088 21.7525 84.7876 21.7525C75.7664 21.7525 67.0528 25.0318 60.2699 30.9794C53.4871 36.9271 49.0975 45.1376 47.9189 54.0815L47.8126 58.4377H43.2439C36.9035 58.6913 30.9236 61.4533 26.6197 66.1159C22.3157 70.7785 20.0402 76.9599 20.2939 83.3002C20.5475 89.6406 23.3094 95.6205 27.972 99.9244C32.6346 104.228 38.816 106.504 45.1564 106.25H47.8126V116.875H45.1564C36.6373 116.821 28.4388 113.62 22.1372 107.887C15.8356 102.154 11.8758 94.2938 11.0189 85.8177C10.1621 77.3416 12.4688 68.848 17.4955 61.9698C22.5222 55.0915 29.9142 50.3143 38.2501 48.5565C40.5435 37.8599 46.4358 28.2732 54.9436 21.3961C63.4515 14.5191 74.0604 10.7676 85.0001 10.7676C95.9398 10.7676 106.549 14.5191 115.057 21.3961C123.564 28.2732 129.457 37.8599 131.75 48.5565C140.086 50.3143 147.478 55.0915 152.505 61.9698C157.531 68.848 159.838 77.3416 158.981 85.8177C158.124 94.2938 154.165 102.154 147.863 107.887C141.561 113.62 133.363 116.821 124.844 116.875Z" fill="#FFFEF2"/>
<path d="M90.3125 139.028V74.375H79.6875V139.028L65.9281 125.322L58.4375 132.812L85 159.375L111.562 132.812L104.072 125.322L90.3125 139.028Z" fill="#FFFEF2"/>
</svg>
