<svg width="172" height="171" viewBox="0 0 172 171" fill="none" xmlns="http://www.w3.org/2000/svg">
<path d="M172 73.478C172 84.6283 167.57 95.3218 159.686 103.206C151.802 111.091 141.108 115.52 129.958 115.52C118.808 115.52 108.114 111.091 100.23 103.206C92.3452 95.3219 87.9158 84.6283 87.9158 73.478L129.958 73.478L172 73.478Z" fill="#E1FCED"/>
<path fill-rule="evenodd" clip-rule="evenodd" d="M159.305 102.825C166.961 95.1689 171.317 84.8294 171.457 74.017L88.4583 74.017C88.5985 84.8294 92.9545 95.1689 100.611 102.825C108.394 110.608 118.951 114.981 129.958 114.981C140.965 114.981 151.522 110.608 159.305 102.825ZM87.9192 74.017C87.9169 73.8375 87.9158 73.6578 87.9158 73.478L172 73.478C172 73.6578 171.999 73.8375 171.996 74.017C171.856 84.9724 167.443 95.449 159.686 103.206C151.802 111.091 141.108 115.52 129.958 115.52C118.808 115.52 108.114 111.091 100.23 103.206C92.4723 95.449 88.0595 84.9724 87.9192 74.017Z" fill="#20AB96"/>
<path d="M90.2313 79.0133C100.709 82.8269 112.273 82.322 122.378 77.6097C132.484 72.8974 140.304 64.3637 144.117 53.8859C147.931 43.4081 147.426 31.8444 142.714 21.7389C138.001 11.6333 129.468 3.81361 118.99 2.40195e-06L104.611 39.5066L90.2313 79.0133Z" fill="#E1FCED"/>
<path fill-rule="evenodd" clip-rule="evenodd" d="M121.467 75.6557C112.533 79.8217 102.398 80.5215 93.0146 77.6699L120.258 2.81812C129.279 6.66526 136.594 13.7161 140.76 22.65C145.23 32.2374 145.709 43.208 142.091 53.1485C138.473 63.089 131.054 71.185 121.467 75.6557ZM120.997 0.789331C120.336 0.50979 119.667 0.246527 118.99 2.40195e-06L90.2313 79.0133C90.9086 79.2598 91.5904 79.4883 92.2762 79.6987C102.198 82.744 112.926 82.0174 122.378 77.6097C132.484 72.8974 140.304 64.3637 144.117 53.8859C147.931 43.4081 147.426 31.8444 142.714 21.7389C138.306 12.2866 130.555 4.83415 120.997 0.789331Z" fill="#20AB96"/>
<path d="M115.854 152.954C105.376 156.767 93.8123 156.262 83.7067 151.55C73.6011 146.838 65.7814 138.304 61.9678 127.826C58.1542 117.348 58.6591 105.785 63.3714 95.6793C68.0837 85.5738 76.6174 77.754 87.0952 73.9404L101.474 113.447L115.854 152.954Z" fill="#E1FCED"/>
<path fill-rule="evenodd" clip-rule="evenodd" d="M119.308 154.565L116.775 155.486C105.626 159.544 93.3207 159.007 82.5674 153.993C71.814 148.978 63.493 139.898 59.435 128.748C55.3769 117.599 55.9141 105.294 60.9285 94.5405C65.9429 83.7871 75.0236 75.4662 86.1731 71.4081L88.7056 70.4863L119.308 154.565ZM84.5919 74.9435C85.4128 74.5836 86.2475 74.249 87.0948 73.9406L115.853 152.954C115.006 153.262 114.151 153.542 113.291 153.794C103.515 156.658 92.9946 155.881 83.7063 151.55C73.6008 146.838 65.7811 138.304 61.9674 127.826C58.1538 117.349 58.6587 105.785 63.371 95.6794C67.7022 86.3911 75.2617 79.0339 84.5919 74.9435Z" fill="#20AB96"/>
<path d="M27.6046 132.765C20.4374 124.223 16.9569 113.184 17.9287 102.076C18.9005 90.9684 24.245 80.7016 32.7866 73.5343C41.3282 66.3671 52.3671 62.8865 63.475 63.8583C74.5828 64.8301 84.8496 70.1747 92.0168 78.7163L59.8107 105.74L27.6046 132.765Z" fill="#E1FCED"/>
<path fill-rule="evenodd" clip-rule="evenodd" d="M20.0765 102.264C19.2173 112.084 22.0261 121.847 27.915 129.69L88.9348 78.488C82.2343 71.3268 73.1071 66.8653 63.287 66.0061C52.7489 65.0842 42.276 68.3862 34.1725 75.1859C26.0689 81.9856 20.9984 91.7259 20.0765 102.264ZM90.5887 77.1002C91.0773 77.6254 91.5535 78.1641 92.0168 78.7163L27.6046 132.765C27.1413 132.212 26.6934 131.65 26.2611 131.077C20.006 122.795 17.0197 112.466 17.9287 102.076C18.9005 90.9684 24.245 80.7016 32.7866 73.5343C41.3282 66.3671 52.3671 62.8865 63.475 63.8583C73.8647 64.7673 83.5187 69.502 90.5887 77.1002Z" fill="#20AB96"/>
<path d="M18.9237 37.1225C24.4988 27.4661 33.6816 20.4199 44.4519 17.534C55.2222 14.6481 66.6978 16.1589 76.3542 21.734C86.0106 27.3091 93.0568 36.4919 95.9427 47.2622C98.8286 58.0325 97.3178 69.5081 91.7427 79.1645L55.3332 58.1435L18.9237 37.1225Z" fill="#E1FCED"/>
<path fill-rule="evenodd" clip-rule="evenodd" d="M45.0099 19.6165C35.4883 22.1678 27.2744 28.1465 21.9193 36.3625L90.9031 76.1903C95.3407 67.4445 96.4115 57.3419 93.8602 47.8202C91.1223 37.6022 84.4374 28.8904 75.2762 23.6012C66.115 18.3119 55.2279 16.8786 45.0099 19.6165ZM92.7728 77.2698C92.4465 77.9085 92.1031 78.5403 91.7427 79.1645L18.9237 37.1225C19.2841 36.4983 19.6595 35.8849 20.0495 35.283C25.6926 26.5725 34.3778 20.2333 44.4519 17.534C55.2222 14.6481 66.6978 16.1589 76.3542 21.734C86.0106 27.3091 93.0568 36.4919 95.9427 47.2622C98.642 57.3363 97.4948 68.0275 92.7728 77.2698Z" fill="#20AB96"/>
</svg>
