<svg width="160" height="145" viewBox="0 0 160 145" fill="none" xmlns="http://www.w3.org/2000/svg">
<path d="M53.8883 0.914551V55.8715L92.5521 94.7319L58.5686 108.88C55.573 110.127 52.2036 110.127 49.208 108.88L19.8811 96.6705C16.8996 95.4292 14.5332 93.0544 13.3026 90.0683L1.12169 60.5114C-0.103155 57.5394 -0.103153 54.2036 1.12169 51.2315L13.3026 21.6746C14.5332 18.6886 16.8996 16.3137 19.8811 15.0724L53.8883 0.914551Z" fill="#FFFEF2" fill-opacity="0.8"/>
<path d="M104.427 144.915L105.538 89.969L67.6673 50.3255L101.987 36.8531C104.972 35.6815 108.297 35.7495 111.231 37.0423L140.39 49.8865C143.328 51.1807 145.635 53.5962 146.803 56.6017L158.379 86.3883C159.548 89.3971 159.48 92.7502 158.191 95.7086L145.421 124.997C144.132 127.952 141.73 130.271 138.742 131.444L104.427 144.915Z" fill="#FFFEF2" fill-opacity="0.8"/>
</svg>
