<svg width="165" height="142" viewBox="0 0 165 142" fill="none" xmlns="http://www.w3.org/2000/svg">
<path fill-rule="evenodd" clip-rule="evenodd" d="M115.995 10.299C113.394 4.06197 107.298 0 100.54 0H63.574C56.8161 0 50.7204 4.06198 48.1186 10.299L40.1366 29.4334H123.977L115.995 10.299ZM110.661 36.8293C117.435 36.8293 123.541 40.9094 126.133 47.1671L138.166 76.2182H26.7576L38.791 47.1671C41.383 40.9094 47.4893 36.8293 54.2625 36.8293H110.661ZM128.894 83.8401C135.665 83.8401 141.77 87.9181 144.364 94.1734L164.114 141.815H0L19.7502 94.1734C22.3434 87.9181 28.4484 83.8401 35.2199 83.8401H128.894Z" fill="white" fill-opacity="0.6"/>
</svg>
