<svg width="290" height="172" viewBox="0 0 290 172" fill="none" xmlns="http://www.w3.org/2000/svg">
<path d="M1.77099 97.4684L0.0209388 57.2839C-0.233304 51.446 1.8361 45.7459 5.77389 41.4377L28.969 16.0606C31.4727 13.3213 34.9593 11.6913 38.6618 11.5292L72.9622 10.0279C78.7853 9.77298 84.471 11.8476 88.7683 15.7954L118.349 42.9695L1.77099 97.4684Z" fill="#FFFEF2" fill-opacity="0.8"/>
<path d="M142.493 87.4615L140.743 47.277C140.488 41.4391 142.558 35.7391 146.495 31.4308L169.691 6.05368C172.194 3.3144 175.681 1.68444 179.383 1.52238L213.684 0.0209921C219.507 -0.233897 225.193 1.84075 229.49 5.78853L259.07 32.9626L142.493 87.4615Z" fill="#FFFEF2" fill-opacity="0.8"/>
<path d="M173.422 161.992L171.672 121.808C171.418 115.97 173.487 110.27 177.425 105.961L200.62 80.5843C203.124 77.845 206.611 76.2151 210.313 76.053L244.614 74.5516C250.437 74.2967 256.122 76.3714 260.42 80.3192L290 107.493L173.422 161.992Z" fill="#FFFEF2" fill-opacity="0.8"/>
<path d="M32.7009 172L30.9508 131.815C30.6966 125.978 32.766 120.278 36.7038 115.969L59.8989 90.5921C62.4026 87.8529 65.8892 86.2229 69.5917 86.0608L103.892 84.5595C109.715 84.3046 115.401 86.3792 119.698 90.327L149.279 117.501L32.7009 172Z" fill="#FFFEF2" fill-opacity="0.8"/>
</svg>
