<svg width="140" height="140" viewBox="0 0 140 140" fill="none" xmlns="http://www.w3.org/2000/svg">
<path d="M121.841 23.5243C125.133 25.4363 127.531 28.5777 128.506 32.2574L139.52 73.7938C140.496 77.4736 139.97 81.3902 138.058 84.6821L116.476 121.841C114.564 125.133 111.422 127.531 107.743 128.506L66.2061 139.52C62.5264 140.496 58.6098 139.97 55.3179 138.058L18.159 116.476C14.867 114.564 12.4695 111.422 11.4937 107.743L0.47954 66.2061C-0.496211 62.5264 0.0297693 58.6098 1.94177 55.3179L23.5243 18.159C25.4363 14.867 28.5777 12.4695 32.2574 11.4937L73.7938 0.47954C77.4736 -0.49621 81.3902 0.029769 84.6821 1.94177L121.841 23.5243Z" fill="#FFFEF2" fill-opacity="0.8"/>
</svg>
