<svg width="24" height="24" viewBox="0 0 24 24" fill="none" xmlns="http://www.w3.org/2000/svg">
<path d="M10.2105 0.453632C11.1906 0.0476557 12.2918 0.047655 13.2719 0.453631L18.6958 2.70025C19.6759 3.10622 20.4546 3.88492 20.8605 4.86503L23.1072 10.2889C23.5131 11.269 23.5131 12.3702 23.1072 13.3503L20.8605 18.7741C20.4546 19.7543 19.6759 20.5329 18.6958 20.9389L13.2719 23.1855C12.2918 23.5915 11.1906 23.5915 10.2105 23.1855L4.78667 20.9389C3.80655 20.5329 3.02785 19.7542 2.62188 18.7741L0.375261 13.3503C-0.0307151 12.3702 -0.0307145 11.269 0.375261 10.2889L2.62188 4.86503C3.02786 3.88492 3.80655 3.10622 4.78666 2.70025L10.2105 0.453632Z" fill="#F84949"/>
</svg>
