<svg width="94" height="91" viewBox="0 0 94 91" fill="none" xmlns="http://www.w3.org/2000/svg">
    <path d="M36.0224 3.29377C35.9128 0.446292 39.889 -0.337591 40.8683 2.33845L47.8007 21.2826C48.4973 23.1862 51.0507 23.5129 52.2042 21.8462L63.896 4.95177C65.5255 2.59722 69.1914 4.38618 68.3381 7.11947L62.445 25.9958C61.8271 27.9748 63.7481 29.8026 65.694 29.0872L84.7992 22.0637C87.5063 21.0685 89.4684 24.6902 87.1563 26.4143L71.2161 38.3007C69.532 39.5565 70.0538 42.2035 72.0885 42.7262L91.3473 47.6735C94.1408 48.3911 93.7 52.4865 90.8178 52.5932L70.4764 53.3461C68.4045 53.4228 67.321 55.8429 68.6438 57.4394L81.2601 72.6667C83.0869 74.8717 80.3742 77.9181 77.973 76.3581L60.7441 65.1652C59.0443 64.0609 56.806 65.3323 56.8839 67.3578L57.6601 87.5156C57.7697 90.3631 53.7934 91.147 52.8142 88.4709L45.8817 69.5268C45.1852 67.6232 42.6318 67.2964 41.4783 68.9632L29.7865 85.8576C28.157 88.2122 24.491 86.4232 25.3443 83.6899L31.2375 64.8136C31.8553 62.8346 29.9344 61.0068 27.9884 61.7221L8.88321 68.7457C6.17614 69.7409 4.214 66.1192 6.52614 64.3951L22.4663 52.5087C24.1504 51.2529 23.6286 48.6059 21.5939 48.0832L2.33512 43.1359C-0.458384 42.4183 -0.0175697 38.3229 2.86466 38.2162L23.2061 37.4633C25.2779 37.3866 26.3614 34.9665 25.0387 33.37L12.4224 18.1427C10.5955 15.9377 13.3083 12.8913 15.7094 14.4512L32.9384 25.6442C34.6382 26.7485 36.8765 25.4771 36.7985 23.4516L36.0224 3.29377Z" fill="#F78454"/>
    <animateTransform attributeName="transform"
    attributeType="XML"
    type="rotate"
    from="0 0 0"
    to="360 0 0"
    dur="15s"
    repeatCount="indefinite"/>
</svg>