<svg width="14" height="14" viewBox="0 0 14 14" fill="none" xmlns="http://www.w3.org/2000/svg">
    <path d="M8.26529 0.994452C9.21267 -0.135638 11.0512 0.6364 10.9077 2.10407L10.6276 4.96898C10.5782 5.47447 10.7879 5.97064 11.1849 6.28742L13.3363 8.00406C14.5184 8.94732 13.7198 10.849 12.2187 10.6655L9.4867 10.3314C8.98255 10.2698 8.48146 10.4675 8.15516 10.8567L6.30586 13.0627C5.35848 14.1927 3.51998 13.4207 3.66347 11.953L3.94357 9.08813C3.99299 8.58264 3.78325 8.08647 3.38625 7.76969L1.23488 6.05305C0.0527391 5.10978 0.851303 3.20812 2.35248 3.39165L5.08445 3.72566C5.5886 3.7873 6.08969 3.58963 6.41599 3.20041L8.26529 0.994452Z" fill="#F78454"/>
    <animateTransform attributeName="transform"
    attributeType="XML"
    type="rotate"
    from="0 0 0"
    to="360 0 0"
    dur="5s"
    repeatCount="indefinite"/>
</svg>